<svg width="405" height="294" viewBox="0 0 405 294" fill="none" xmlns="http://www.w3.org/2000/svg">
<path d="M152.121 26.2494C157.642 20.7536 162.754 15.09 167.441 9.27908C169.879 6.22112 171.935 3.04394 174.412 0L174.242 90.0991L174.125 112.007C174.031 117.188 173.46 122.543 174.355 127.697C175.102 132.006 177.403 135.526 180.6 139.3C175.918 137.579 171.658 135.663 167.625 133.354C167.55 133.308 167.476 133.262 167.403 133.215C160.278 128.703 155.314 122.956 153.106 116.665C151.514 112.044 151.96 107.036 151.951 102.325L151.961 85.7488L152.121 26.2494Z" fill="url(#paint0_linear_45_3)"/>
<path d="M224 138.6C226.478 135.274 228.717 131.897 229.438 128.205C230.415 123.204 230.048 117.977 230.06 112.941L230.086 90.0706L230.135 32.8002C230.135 21.8733 229.86 10.9229 230.236 0C231.588 0.855975 232.471 2.71824 233.294 3.84539C238.8 11.5597 245.155 19.0102 252.309 26.1402C252.349 26.5652 252.382 26.9907 252.407 27.4162C252.744 33.3121 252.521 39.2795 252.535 45.1824L252.558 80.0177L252.6 99.8579C252.598 104.86 253.171 110.152 251.596 115.066C249.485 121.655 244.548 127.354 237.497 132.253C233.401 134.876 229.26 137.036 224 138.6Z" fill="url(#paint1_linear_45_3)"/>
<path d="M259.7 138.6C261.657 135.699 263.212 132.869 263.774 129.717C265.366 120.778 264.144 108.457 264.107 99.162L264.052 39.9C266.676 41.5516 270.809 46.4495 273.17 48.6528C277.947 53.1092 283.032 57.3402 288.318 61.5547C287.835 72.892 288.268 84.3093 288.233 95.6557C288.214 102.133 289.16 109.301 286.741 115.605C284.478 121.499 279.929 126.416 273.891 131.045C269.545 133.984 265.118 136.49 259.7 138.6Z" fill="url(#paint2_linear_45_3)"/>
<path d="M117.277 61.3891C125.356 54.6774 133.386 47.8916 140.168 40.6C141.172 42.9512 140.377 53.7595 140.365 57.0487L140.247 105.031C140.218 112.655 139.154 121.871 140.496 129.263C141.093 132.556 142.669 135.624 144.9 138.6C140.235 136.702 136.013 134.547 132.023 132.096C125.62 127.471 120.76 122.149 118.46 116.088C116.05 109.735 117.147 100.442 117.163 93.7366L117.277 61.3891Z" fill="url(#paint3_linear_45_3)"/>
<path d="M296.8 137.9C300.892 128.972 299.301 116.857 299.24 107.469C299.164 95.9155 298.931 84.3523 299.114 72.8C301.625 74.3562 303.777 76.3732 306.08 78.0757C311.386 82.066 316.894 85.9498 322.595 89.7211C322.134 106.015 326.119 116.054 309.305 130.246C305.653 133.158 301.451 135.626 296.8 137.9Z" fill="url(#paint4_linear_45_3)"/>
<path d="M82.8305 89.8422C90.7793 84.7475 97.5675 78.9934 104.821 73.5C105.863 76.657 105.044 81.4414 105.058 84.7885L105.01 113.997C105.002 119.225 104.376 124.812 105.474 129.982C106.078 132.827 107.441 135.274 109.2 137.9C105.068 135.792 101.167 133.619 97.4895 131.178C79.899 119.179 82.7185 105.011 82.8305 89.8422Z" fill="url(#paint5_linear_45_3)"/>
<path d="M332.7 137.9L332.5 99.4C334.465 100.339 336.337 102.048 338.014 103.242C341.149 105.472 344.364 107.651 347.655 109.777C358.215 116.559 369.469 122.556 381.431 128.182C386.923 130.718 392.56 133.109 398.329 135.348C400.052 136.004 403.563 136.754 404.6 137.865C396.706 137.692 388.735 137.873 380.831 137.879L332.7 137.9Z" fill="url(#paint6_linear_45_3)"/>
<path d="M1.74824 137.559L1.40002 137.478C2.03394 136.845 7.94632 135.018 9.33554 134.45C15.1156 132.042 20.7808 129.503 26.3217 126.837C42.3985 118.836 57.4575 109.89 71.333 100.1C71.4835 100.25 71.7045 100.377 71.7838 100.551C72.4402 102.001 71.8717 107.39 71.8681 109.17L71.7285 137.648C48.4839 138.12 25.0016 137.834 1.74824 137.559Z" fill="url(#paint7_linear_45_3)"/>
<path d="M152.127 266.335C151.645 248.906 152.079 231.413 152.085 213.976L152.105 192.814C152.112 188.717 151.898 184.564 152.319 180.478C152.584 177.897 153.1 175.201 154.413 172.747C158.95 164.269 167.263 157.313 179.835 153.3C180.452 153.738 176.497 158.798 176.114 159.801C174.056 165.189 174.275 170.59 174.272 176.093C173.785 215.161 173.848 254.232 174.459 293.3C172.468 290.23 170.306 287.265 168.031 284.28C163.164 278.109 157.836 272.194 152.127 266.335Z" fill="url(#paint8_linear_45_3)"/>
<path d="M230.052 293.3L230.064 208.681L230.084 181.34C230.09 175.937 230.513 170.36 229.601 164.984C228.904 160.885 226.888 156.967 224 153.3C228.699 154.504 233.112 156.741 236.64 159.037C244.011 163.835 248.949 169.355 251.296 175.935C253.104 181.001 252.647 186.221 252.652 191.383L252.658 207.747L252.49 266.621C247.258 272.066 242.174 277.47 237.581 283.152C234.976 286.496 232.762 290.005 230.052 293.3Z" fill="url(#paint9_linear_45_3)"/>
<path d="M264.394 252.7L264.408 194.75L264.567 176.491C264.612 171.768 264.873 166.991 264.055 162.291C263.493 159.062 261.982 156.176 259.7 153.3C263.648 154.065 268 156.559 270.874 158.413C277.983 162.996 283.792 169.064 286.385 175.374C289.366 182.629 288.156 192.166 288.163 199.747L288.171 230.386C282.982 234.588 278.046 238.92 273.373 243.371C270.163 246.39 267.167 249.503 264.394 252.7Z" fill="url(#paint10_linear_45_3)"/>
<path d="M117.131 230.117L117.181 198.677C117.165 191.351 115.967 183.127 118.643 175.984C122.16 166.598 131.287 158.985 144.004 154C144.657 154.595 143.507 155.74 143.066 156.435C140.964 159.744 140.282 163.603 140.232 167.16C139.837 195.423 140.161 223.735 140.419 252C137.452 248.883 134.454 245.813 131.29 242.776C126.69 238.498 121.776 234.373 117.131 230.117Z" fill="url(#paint11_linear_45_3)"/>
<path d="M82.8597 202.949C83.0411 195.293 81.7245 185.11 83.7212 177.839C86.5013 167.714 96.1872 159.767 109.077 154C109.478 154.357 108.793 155.112 108.533 155.513C106.792 158.209 106.04 160.975 105.731 163.877C105.273 168.17 105.455 172.501 105.47 176.802L105.509 195.809L105.5 210.453C105.499 213.54 105.239 216.738 105.888 219.8C102.697 217.135 99.1807 214.599 95.7728 212.047C91.5292 208.979 87.2237 205.946 82.8597 202.949Z" fill="url(#paint12_linear_45_3)"/>
<path d="M299.34 219.8L299.448 185.003C299.449 175.092 300.885 163.496 296.8 154C299.356 154.796 302.069 156.556 304.09 157.85C313.633 163.961 320.33 171.715 321.689 180.403C322.148 183.337 321.959 186.362 321.968 189.31L322 202.977L310.321 211.183C306.429 213.93 302.763 216.806 299.34 219.8Z" fill="url(#paint13_linear_45_3)"/>
<path d="M332.747 154.084L378.91 154.093C387.195 154.097 395.554 154.253 403.829 154L403.9 154.027C403.852 154.172 390.76 159.649 389.219 160.351C368.635 169.672 349.791 180.705 333.112 193.2L332.91 193.084C332.106 190.53 332.732 184.893 332.732 182.017L332.747 154.084Z" fill="url(#paint14_linear_45_3)"/>
<path d="M71.3905 193.2C67.7057 191.356 64.3571 188.355 60.9984 186.164C53.4503 181.238 45.488 176.305 37.2949 171.897C29.4506 167.652 21.323 163.662 12.9385 159.942C9.17359 158.304 3.136 156.568 0 154.7C8.31971 155.343 17.264 154.889 25.6682 154.889L71.4 155.054L71.3905 193.2Z" fill="url(#paint15_linear_45_3)"/>
<defs>
<linearGradient id="paint0_linear_45_3" x1="166.25" y1="0" x2="166.25" y2="139.3" gradientUnits="userSpaceOnUse">
<stop stop-color="#7C3AED"/>
<stop offset="1" stop-color="#6D28D9"/>
</linearGradient>
<linearGradient id="paint1_linear_45_3" x1="238.35" y1="0" x2="238.35" y2="138.6" gradientUnits="userSpaceOnUse">
<stop stop-color="#7C3AED"/>
<stop offset="1" stop-color="#6D28D9"/>
</linearGradient>
<linearGradient id="paint2_linear_45_3" x1="274.05" y1="39.9" x2="274.05" y2="138.6" gradientUnits="userSpaceOnUse">
<stop stop-color="#7C3AED"/>
<stop offset="1" stop-color="#6D28D9"/>
</linearGradient>
<linearGradient id="paint3_linear_45_3" x1="130.9" y1="40.6" x2="130.9" y2="138.6" gradientUnits="userSpaceOnUse">
<stop stop-color="#7C3AED"/>
<stop offset="1" stop-color="#6D28D9"/>
</linearGradient>
<linearGradient id="paint4_linear_45_3" x1="309.75" y1="72.8" x2="309.75" y2="137.9" gradientUnits="userSpaceOnUse">
<stop stop-color="#7C3AED"/>
<stop offset="1" stop-color="#6D28D9"/>
</linearGradient>
<linearGradient id="paint5_linear_45_3" x1="95.9" y1="73.5" x2="95.9" y2="137.9" gradientUnits="userSpaceOnUse">
<stop stop-color="#7C3AED"/>
<stop offset="1" stop-color="#6D28D9"/>
</linearGradient>
<linearGradient id="paint6_linear_45_3" x1="368.55" y1="99.4" x2="368.55" y2="137.9" gradientUnits="userSpaceOnUse">
<stop stop-color="#7C3AED"/>
<stop offset="1" stop-color="#6D28D9"/>
</linearGradient>
<linearGradient id="paint7_linear_45_3" x1="36.75" y1="100.1" x2="36.75" y2="137.9" gradientUnits="userSpaceOnUse">
<stop stop-color="#7C3AED"/>
<stop offset="1" stop-color="#6D28D9"/>
</linearGradient>
<linearGradient id="paint8_linear_45_3" x1="165.9" y1="153.3" x2="165.9" y2="293.3" gradientUnits="userSpaceOnUse">
<stop stop-color="#7C3AED"/>
<stop offset="1" stop-color="#6D28D9"/>
</linearGradient>
<linearGradient id="paint9_linear_45_3" x1="238.35" y1="153.3" x2="238.35" y2="293.3" gradientUnits="userSpaceOnUse">
<stop stop-color="#7C3AED"/>
<stop offset="1" stop-color="#6D28D9"/>
</linearGradient>
<linearGradient id="paint10_linear_45_3" x1="274.05" y1="153.3" x2="274.05" y2="252.7" gradientUnits="userSpaceOnUse">
<stop stop-color="#7C3AED"/>
<stop offset="1" stop-color="#6D28D9"/>
</linearGradient>
<linearGradient id="paint11_linear_45_3" x1="130.55" y1="154" x2="130.55" y2="252" gradientUnits="userSpaceOnUse">
<stop stop-color="#7C3AED"/>
<stop offset="1" stop-color="#6D28D9"/>
</linearGradient>
<linearGradient id="paint12_linear_45_3" x1="95.9" y1="154" x2="95.9" y2="219.8" gradientUnits="userSpaceOnUse">
<stop stop-color="#7C3AED"/>
<stop offset="1" stop-color="#6D28D9"/>
</linearGradient>
<linearGradient id="paint13_linear_45_3" x1="309.4" y1="154" x2="309.4" y2="219.8" gradientUnits="userSpaceOnUse">
<stop stop-color="#7C3AED"/>
<stop offset="1" stop-color="#6D28D9"/>
</linearGradient>
<linearGradient id="paint14_linear_45_3" x1="368.2" y1="154" x2="368.2" y2="193.2" gradientUnits="userSpaceOnUse">
<stop stop-color="#7C3AED"/>
<stop offset="1" stop-color="#6D28D9"/>
</linearGradient>
<linearGradient id="paint15_linear_45_3" x1="35.7" y1="154.7" x2="35.7" y2="193.2" gradientUnits="userSpaceOnUse">
<stop stop-color="#7C3AED"/>
<stop offset="1" stop-color="#6D28D9"/>
</linearGradient>
</defs>
</svg>
