<svg width="508" height="508" viewBox="0 0 508 508" fill="none" xmlns="http://www.w3.org/2000/svg">
<g filter="url(#filter0_d_45_3)">
<rect x="4" width="500" height="500" fill="#151515"/>
</g>
<path d="M204.121 129.249C209.642 123.754 214.754 118.09 219.441 112.279C221.879 109.221 223.935 106.044 226.412 103L226.242 193.099L226.125 215.007C226.031 220.188 225.46 225.543 226.355 230.697C227.102 235.006 229.403 238.526 232.6 242.3C227.918 240.579 223.658 238.663 219.625 236.354C219.55 236.308 219.476 236.262 219.403 236.215C212.278 231.703 207.314 225.956 205.106 219.665C203.514 215.044 203.96 210.036 203.951 205.325L203.961 188.749L204.121 129.249Z" fill="url(#paint0_linear_45_3)"/>
<path d="M276 241.6C278.478 238.274 280.717 234.897 281.438 231.205C282.415 226.204 282.048 220.977 282.06 215.941L282.086 193.071L282.135 135.8C282.135 124.873 281.86 113.923 282.236 103C283.588 103.856 284.471 105.718 285.294 106.845C290.8 114.56 297.155 122.01 304.309 129.14C304.349 129.565 304.382 129.991 304.407 130.416C304.744 136.312 304.521 142.279 304.535 148.182L304.558 183.018L304.6 202.858C304.598 207.86 305.171 213.152 303.596 218.066C301.485 224.655 296.548 230.354 289.497 235.253C285.401 237.876 281.26 240.036 276 241.6Z" fill="url(#paint1_linear_45_3)"/>
<path d="M311.7 241.6C313.657 238.699 315.212 235.869 315.774 232.717C317.366 223.778 316.144 211.457 316.107 202.162L316.052 142.9C318.676 144.552 322.809 149.45 325.17 151.653C329.947 156.109 335.032 160.34 340.318 164.555C339.835 175.892 340.268 187.309 340.233 198.656C340.214 205.133 341.16 212.301 338.741 218.605C336.478 224.499 331.929 229.416 325.891 234.045C321.545 236.984 317.118 239.49 311.7 241.6Z" fill="url(#paint2_linear_45_3)"/>
<path d="M169.277 164.389C177.356 157.677 185.386 150.892 192.168 143.6C193.172 145.951 192.377 156.759 192.365 160.049L192.247 208.031C192.218 215.655 191.154 224.871 192.496 232.263C193.093 235.556 194.669 238.624 196.9 241.6C192.235 239.702 188.013 237.547 184.023 235.096C177.62 230.471 172.76 225.149 170.46 219.088C168.05 212.735 169.147 203.442 169.163 196.737L169.277 164.389Z" fill="url(#paint3_linear_45_3)"/>
<path d="M348.8 240.9C352.892 231.972 351.301 219.857 351.24 210.469C351.164 198.916 350.931 187.352 351.114 175.8C353.625 177.356 355.777 179.373 358.08 181.076C363.386 185.066 368.894 188.95 374.595 192.721C374.134 209.015 378.119 219.054 361.305 233.246C357.653 236.158 353.451 238.626 348.8 240.9Z" fill="url(#paint4_linear_45_3)"/>
<path d="M134.831 192.842C142.779 187.747 149.567 181.993 156.821 176.5C157.863 179.657 157.044 184.441 157.058 187.789L157.01 216.997C157.002 222.225 156.376 227.812 157.474 232.982C158.078 235.827 159.441 238.274 161.2 240.9C157.068 238.792 153.167 236.619 149.49 234.178C131.899 222.179 134.719 208.011 134.831 192.842Z" fill="url(#paint5_linear_45_3)"/>
<path d="M384.7 240.9L384.5 202.4C386.465 203.339 388.337 205.048 390.014 206.242C393.149 208.472 396.364 210.651 399.655 212.777C410.215 219.559 421.469 225.556 433.431 231.182C438.923 233.718 444.56 236.109 450.329 238.348C452.052 239.004 455.563 239.754 456.6 240.865C448.706 240.692 440.735 240.873 432.831 240.879L384.7 240.9Z" fill="url(#paint6_linear_45_3)"/>
<path d="M53.7482 240.559L53.4 240.478C54.0339 239.845 59.9463 238.018 61.3355 237.45C67.1156 235.042 72.7808 232.503 78.3217 229.837C94.3985 221.836 109.458 212.89 123.333 203.1C123.484 203.25 123.705 203.377 123.784 203.551C124.44 205.001 123.872 210.39 123.868 212.17L123.729 240.648C100.484 241.12 77.0016 240.834 53.7482 240.559Z" fill="url(#paint7_linear_45_3)"/>
<path d="M204.127 369.335C203.645 351.906 204.079 334.413 204.085 316.976L204.105 295.814C204.112 291.717 203.898 287.564 204.319 283.478C204.584 280.897 205.1 278.201 206.413 275.747C210.95 267.269 219.263 260.313 231.835 256.3C232.452 256.738 228.497 261.798 228.114 262.801C226.056 268.189 226.275 273.59 226.272 279.093C225.785 318.161 225.848 357.232 226.459 396.3C224.468 393.23 222.306 390.265 220.031 387.28C215.164 381.109 209.836 375.194 204.127 369.335Z" fill="url(#paint8_linear_45_3)"/>
<path d="M282.052 396.3L282.064 311.681L282.084 284.34C282.09 278.937 282.513 273.36 281.601 267.984C280.904 263.885 278.888 259.967 276 256.3C280.699 257.504 285.112 259.741 288.64 262.037C296.011 266.835 300.949 272.355 303.296 278.935C305.104 284.001 304.647 289.221 304.652 294.383L304.658 310.747L304.49 369.621C299.258 375.066 294.174 380.47 289.581 386.152C286.976 389.496 284.762 393.005 282.052 396.3Z" fill="url(#paint9_linear_45_3)"/>
<path d="M316.394 355.7L316.408 297.75L316.567 279.491C316.612 274.768 316.873 269.991 316.055 265.291C315.493 262.062 313.982 259.176 311.7 256.3C315.648 257.065 320 259.559 322.874 261.413C329.983 265.996 335.792 272.064 338.385 278.374C341.366 285.629 340.156 295.166 340.163 302.747L340.171 333.386C334.982 337.588 330.046 341.92 325.373 346.371C322.163 349.39 319.167 352.503 316.394 355.7Z" fill="url(#paint10_linear_45_3)"/>
<path d="M169.131 333.117L169.181 301.677C169.165 294.351 167.967 286.127 170.643 278.984C174.16 269.598 183.287 261.985 196.004 257C196.657 257.595 195.507 258.74 195.066 259.435C192.964 262.744 192.282 266.603 192.232 270.16C191.837 298.423 192.161 326.735 192.419 355C189.452 351.883 186.454 348.813 183.29 345.776C178.69 341.498 173.776 337.373 169.131 333.117Z" fill="url(#paint11_linear_45_3)"/>
<path d="M134.86 305.949C135.041 298.293 133.725 288.11 135.721 280.839C138.501 270.714 148.187 262.767 161.077 257C161.478 257.357 160.793 258.112 160.533 258.513C158.792 261.209 158.04 263.975 157.731 266.877C157.273 271.17 157.455 275.501 157.47 279.802L157.509 298.809L157.5 313.453C157.499 316.54 157.239 319.738 157.888 322.8C154.697 320.135 151.181 317.599 147.773 315.047C143.529 311.979 139.224 308.946 134.86 305.949Z" fill="url(#paint12_linear_45_3)"/>
<path d="M351.34 322.8L351.448 288.003C351.449 278.092 352.885 266.496 348.8 257C351.356 257.796 354.069 259.556 356.09 260.85C365.633 266.961 372.33 274.715 373.689 283.403C374.148 286.337 373.959 289.362 373.968 292.31L374 305.977L362.321 314.183C358.429 316.93 354.763 319.806 351.34 322.8Z" fill="url(#paint13_linear_45_3)"/>
<path d="M384.747 257.084L430.91 257.093C439.195 257.097 447.554 257.253 455.829 257L455.9 257.027C455.852 257.172 442.76 262.649 441.219 263.351C420.635 272.672 401.791 283.705 385.112 296.2L384.91 296.084C384.106 293.53 384.732 287.893 384.732 285.017L384.747 257.084Z" fill="url(#paint14_linear_45_3)"/>
<path d="M123.391 296.2C119.706 294.356 116.357 291.355 112.998 289.164C105.45 284.238 97.488 279.305 89.2949 274.897C81.4506 270.652 73.323 266.662 64.9385 262.942C61.1736 261.304 55.136 259.568 52 257.7C60.3197 258.343 69.264 257.889 77.6682 257.889L123.4 258.054L123.391 296.2Z" fill="url(#paint15_linear_45_3)"/>
<defs>
<filter id="filter0_d_45_3" x="0" y="0" width="508" height="508" filterUnits="userSpaceOnUse" color-interpolation-filters="sRGB">
<feFlood flood-opacity="0" result="BackgroundImageFix"/>
<feColorMatrix in="SourceAlpha" type="matrix" values="0 0 0 0 0 0 0 0 0 0 0 0 0 0 0 0 0 0 127 0" result="hardAlpha"/>
<feOffset dy="4"/>
<feGaussianBlur stdDeviation="2"/>
<feComposite in2="hardAlpha" operator="out"/>
<feColorMatrix type="matrix" values="0 0 0 0 0 0 0 0 0 0 0 0 0 0 0 0 0 0 0.25 0"/>
<feBlend mode="normal" in2="BackgroundImageFix" result="effect1_dropShadow_45_3"/>
<feBlend mode="normal" in="SourceGraphic" in2="effect1_dropShadow_45_3" result="shape"/>
</filter>
<linearGradient id="paint0_linear_45_3" x1="218.25" y1="103" x2="218.25" y2="242.3" gradientUnits="userSpaceOnUse">
<stop stop-color="#7C3AED"/>
<stop offset="1" stop-color="#6D28D9"/>
</linearGradient>
<linearGradient id="paint1_linear_45_3" x1="290.35" y1="103" x2="290.35" y2="241.6" gradientUnits="userSpaceOnUse">
<stop stop-color="#7C3AED"/>
<stop offset="1" stop-color="#6D28D9"/>
</linearGradient>
<linearGradient id="paint2_linear_45_3" x1="326.05" y1="142.9" x2="326.05" y2="241.6" gradientUnits="userSpaceOnUse">
<stop stop-color="#7C3AED"/>
<stop offset="1" stop-color="#6D28D9"/>
</linearGradient>
<linearGradient id="paint3_linear_45_3" x1="182.9" y1="143.6" x2="182.9" y2="241.6" gradientUnits="userSpaceOnUse">
<stop stop-color="#7C3AED"/>
<stop offset="1" stop-color="#6D28D9"/>
</linearGradient>
<linearGradient id="paint4_linear_45_3" x1="361.75" y1="175.8" x2="361.75" y2="240.9" gradientUnits="userSpaceOnUse">
<stop stop-color="#7C3AED"/>
<stop offset="1" stop-color="#6D28D9"/>
</linearGradient>
<linearGradient id="paint5_linear_45_3" x1="147.9" y1="176.5" x2="147.9" y2="240.9" gradientUnits="userSpaceOnUse">
<stop stop-color="#7C3AED"/>
<stop offset="1" stop-color="#6D28D9"/>
</linearGradient>
<linearGradient id="paint6_linear_45_3" x1="420.55" y1="202.4" x2="420.55" y2="240.9" gradientUnits="userSpaceOnUse">
<stop stop-color="#7C3AED"/>
<stop offset="1" stop-color="#6D28D9"/>
</linearGradient>
<linearGradient id="paint7_linear_45_3" x1="88.75" y1="203.1" x2="88.75" y2="240.9" gradientUnits="userSpaceOnUse">
<stop stop-color="#7C3AED"/>
<stop offset="1" stop-color="#6D28D9"/>
</linearGradient>
<linearGradient id="paint8_linear_45_3" x1="217.9" y1="256.3" x2="217.9" y2="396.3" gradientUnits="userSpaceOnUse">
<stop stop-color="#7C3AED"/>
<stop offset="1" stop-color="#6D28D9"/>
</linearGradient>
<linearGradient id="paint9_linear_45_3" x1="290.35" y1="256.3" x2="290.35" y2="396.3" gradientUnits="userSpaceOnUse">
<stop stop-color="#7C3AED"/>
<stop offset="1" stop-color="#6D28D9"/>
</linearGradient>
<linearGradient id="paint10_linear_45_3" x1="326.05" y1="256.3" x2="326.05" y2="355.7" gradientUnits="userSpaceOnUse">
<stop stop-color="#7C3AED"/>
<stop offset="1" stop-color="#6D28D9"/>
</linearGradient>
<linearGradient id="paint11_linear_45_3" x1="182.55" y1="257" x2="182.55" y2="355" gradientUnits="userSpaceOnUse">
<stop stop-color="#7C3AED"/>
<stop offset="1" stop-color="#6D28D9"/>
</linearGradient>
<linearGradient id="paint12_linear_45_3" x1="147.9" y1="257" x2="147.9" y2="322.8" gradientUnits="userSpaceOnUse">
<stop stop-color="#7C3AED"/>
<stop offset="1" stop-color="#6D28D9"/>
</linearGradient>
<linearGradient id="paint13_linear_45_3" x1="361.4" y1="257" x2="361.4" y2="322.8" gradientUnits="userSpaceOnUse">
<stop stop-color="#7C3AED"/>
<stop offset="1" stop-color="#6D28D9"/>
</linearGradient>
<linearGradient id="paint14_linear_45_3" x1="420.2" y1="257" x2="420.2" y2="296.2" gradientUnits="userSpaceOnUse">
<stop stop-color="#7C3AED"/>
<stop offset="1" stop-color="#6D28D9"/>
</linearGradient>
<linearGradient id="paint15_linear_45_3" x1="87.7" y1="257.7" x2="87.7" y2="296.2" gradientUnits="userSpaceOnUse">
<stop stop-color="#7C3AED"/>
<stop offset="1" stop-color="#6D28D9"/>
</linearGradient>
</defs>
</svg>
